<?xml version="1.0" encoding="UTF-8"?>
<svg width="1200pt" height="1200pt" version="1.1" viewBox="0 0 1200 1200" xmlns="http://www.w3.org/2000/svg">
 <g>
  <path d="m1200 600c0 214.36-114.36 412.44-300 519.62-185.64 107.18-414.36 107.18-600 0-185.64-107.18-300-305.26-300-519.62s114.36-412.44 300-519.62c185.64-107.18 414.36-107.18 600 0 185.64 107.18 300 305.26 300 519.62" fill="#4c00d1"/>
  <path d="m462.56 751.15h-36.371v37.785h113.34v-75.57h-64.207c0 15.793-5.0938 29.668-12.766 37.785z" fill="#25c19f"/>
  <path d="m690.67 864.51h151.14v-226.71h-151.14zm37.785-188.93h75.57v151.14h-75.57z" fill="#25c19f"/>
  <path d="m577.32 524.44v264.5h75.57v-37.785h-37.785v-188.93h264.5v226.71h37.785v-264.5z" fill="#25c19f"/>
  <path d="m312.83 373.28h415.62v113.37h37.785v-151.16h-491.2v340.09h264.49v-75.574h-226.7z" fill="#25c19f"/>
 </g>
</svg>
