<?xml version="1.0" encoding="UTF-8"?>
<svg width="1200pt" height="1200pt" version="1.1" viewBox="0 0 1200 1200" xmlns="http://www.w3.org/2000/svg">
 <g>
  <path d="m1200 600c0 214.36-114.36 412.44-300 519.62-185.64 107.18-414.36 107.18-600 0-185.64-107.18-300-305.26-300-519.62s114.36-412.44 300-519.62c185.64-107.18 414.36-107.18 600 0 185.64 107.18 300 305.26 300 519.62" fill="#4c00d1"/>
  <path d="m310.31 952.67h579.38c3.3398 0 6.543-1.3281 8.9062-3.6875 2.3633-2.3633 3.6914-5.5664 3.6914-8.9062v-352.67c0-3.3398-1.3281-6.543-3.6914-8.9062-2.3633-2.3633-5.5664-3.6875-8.9062-3.6875h-277.09v340.07c0 6.957-5.6406 12.594-12.598 12.594-6.9531 0-12.594-5.6367-12.594-12.594v-340.07h-277.09c-6.957 0-12.598 5.6367-12.598 12.594v352.67c0 3.3398 1.3281 6.543 3.6914 8.9062 2.3594 2.3594 5.5664 3.6875 8.9062 3.6875zm478.62-75.57h-62.977c-6.957 0-12.594-5.6406-12.594-12.598 0-6.9531 5.6367-12.594 12.594-12.594h62.977c6.957 0 12.598 5.6406 12.598 12.594 0 6.957-5.6406 12.598-12.598 12.598zm25.191-50.383h-113.36c-6.9531 0-12.594-5.6367-12.594-12.594 0-6.957 5.6406-12.594 12.594-12.594h113.36c6.957 0 12.594 5.6367 12.594 12.594 0 6.957-5.6367 12.594-12.594 12.594zm-163.74-163.74c0-6.6797 2.6523-13.086 7.3789-17.812 4.7227-4.7227 11.129-7.375 17.812-7.375h163.74c6.6797 0 13.086 2.6523 17.812 7.375 4.7227 4.7266 7.375 11.133 7.375 17.812v75.574c0 6.6797-2.6523 13.086-7.375 17.812-4.7266 4.7227-11.133 7.375-17.812 7.375h-163.74c-6.6836 0-13.09-2.6523-17.812-7.375-4.7266-4.7266-7.3789-11.133-7.3789-17.812z" fill="#25c19f"/>
  <path d="m340.34 499.38c-1.1445-0.32422-2.3711-0.078125-3.3008 0.65625-0.97656 0.71875-1.5469 1.8594-1.5391 3.0703v46.516h176.57z" fill="#25c19f"/>
  <path d="m562.21 322.91c0 6.957-5.6367 12.594-12.594 12.594-6.957 0-12.594-5.6367-12.594-12.594s5.6367-12.594 12.594-12.594c6.957 0 12.594 5.6367 12.594 12.594" fill="#25c19f"/>
  <path d="m499.24 461.45h201.52c3.3438 0 6.5469-1.3242 8.9062-3.6875 2.3633-2.3633 3.6914-5.5664 3.6914-8.9062v-176.33c0-3.3438-1.3281-6.5469-3.6914-8.9062-2.3594-2.3633-5.5625-3.6914-8.9062-3.6914h-201.52c-6.9531 0-12.594 5.6406-12.594 12.598v176.33c0 3.3398 1.3281 6.543 3.6875 8.9062 2.3633 2.3633 5.5664 3.6875 8.9062 3.6875zm62.977-37.785c0 6.957-5.6367 12.594-12.594 12.594-6.957 0-12.594-5.6367-12.594-12.594v-25.191c0-6.9531 5.6367-12.594 12.594-12.594 6.957 0 12.594 5.6406 12.594 12.594zm100.76 0c0 6.957-5.6367 12.594-12.594 12.594-6.957 0-12.594-5.6367-12.594-12.594v-25.191c0-6.9531 5.6367-12.594 12.594-12.594 6.957 0 12.594 5.6406 12.594 12.594zm-12.594-138.55c10.02 0 19.633 3.9805 26.719 11.066 7.0859 7.0859 11.066 16.699 11.066 26.719 0 10.023-3.9805 19.633-11.066 26.719-7.0859 7.0859-16.699 11.066-26.719 11.066-10.023 0-19.633-3.9805-26.719-11.066-7.0859-7.0859-11.066-16.695-11.066-26.719 0-10.02 3.9805-19.633 11.066-26.719 7.0859-7.0859 16.695-11.066 26.719-11.066zm-50.383 100.76c3.3438 0 6.5469 1.3281 8.9062 3.6875 2.3633 2.3633 3.6914 5.5664 3.6914 8.9062v25.191c0 6.957-5.6406 12.594-12.598 12.594-6.9531 0-12.594-5.6367-12.594-12.594v-25.191c0-6.9531 5.6406-12.594 12.594-12.594zm-50.379-100.76c10.02 0 19.633 3.9805 26.719 11.066 7.0859 7.0859 11.066 16.699 11.066 26.719 0 10.023-3.9805 19.633-11.066 26.719-7.0859 7.0859-16.699 11.066-26.719 11.066-10.023 0-19.633-3.9805-26.719-11.066-7.0859-7.0859-11.066-16.695-11.066-26.719 0-10.02 3.9805-19.633 11.066-26.719 7.0859-7.0859 16.695-11.066 26.719-11.066z" fill="#25c19f"/>
  <path d="m662.98 322.91c0 6.957-5.6367 12.594-12.594 12.594-6.957 0-12.594-5.6367-12.594-12.594s5.6367-12.594 12.594-12.594c6.957 0 12.594 5.6367 12.594 12.594" fill="#25c19f"/>
  <path d="m461.45 411.07v-100.76c-4.4297 1.5391-8.6602 3.6133-12.594 6.1719v-56.555c0-6.957-5.6406-12.594-12.598-12.594-6.9531 0-12.594 5.6367-12.594 12.594v100.76c0.21875 11.301 3.9844 22.246 10.766 31.285 6.7812 9.043 16.234 15.723 27.02 19.098z" fill="#25c19f"/>
  <path d="m675.57 662.98h163.75v75.57h-163.75z" fill="#25c19f"/>
  <path d="m864.5 549.62v-46.516c0.011719-1.2109-0.55859-2.3516-1.5352-3.0703-0.95312-0.75391-2.2148-0.98828-3.375-0.63281l-171.66 50.219z" fill="#25c19f"/>
  <path d="m600 549.09 37.789-11.059v-51.387h-75.574v51.387z" fill="#25c19f"/>
  <path d="m776.34 360.69v-100.76c0-6.957-5.6406-12.594-12.598-12.594-6.9531 0-12.594 5.6367-12.594 12.594v56.555c-3.9336-2.5586-8.1641-4.6328-12.594-6.1719v100.76c10.785-3.375 20.234-10.059 27.016-19.098 6.7812-9.043 10.547-19.984 10.77-31.285z" fill="#25c19f"/>
 </g>
</svg>
