<?xml version="1.0" encoding="UTF-8"?>
<svg width="1200pt" height="1200pt" version="1.1" viewBox="0 0 1200 1200" xmlns="http://www.w3.org/2000/svg">
 <g>
  <path d="m1200 600c0 214.36-114.36 412.44-300 519.62-185.64 107.18-414.36 107.18-600 0-185.64-107.18-300-305.26-300-519.62s114.36-412.44 300-519.62c185.64-107.18 414.36-107.18 600 0 185.64 107.18 300 305.26 300 519.62" fill="#4c00d1"/>
  <path d="m847.92 523.5c22.332-23.793 35.473-55.438 35.473-88.809 0-36.887-15.777-72.172-43.277-96.789-27.465-24.609-64.391-36.32-101.38-32.27-53.465 5.9141-98.242 45.945-111.17 97.355-30.785-8.125-64.945-1.9258-90.77 17.227-13.496-5.9961-28.234-9.1367-43.062-9.1367-45.695 0-86.305 29.781-100.68 72.324-5.8086-0.98047-11.633-1.4766-17.406-1.4766-58.602 0-106.27 47.68-106.27 106.27 0 3.8125 0.24609 7.7227 0.73047 11.832-29.047 32.379-41.445 75.406-34.078 119 10.109 59.809 59.242 107.39 119.46 115.74 28.965 4.0156 57.445-0.58984 83.012-13.332 24.562 31.586 62.148 50.148 103.02 50.148h0.17578c9.6836 0 18.645 3.6133 25.234 10.18 6.1172 6.082 9.4688 14.168 9.4688 22.801l0.003907 61.484h70.848v-20.309c0-42.781 23.414-82.809 62.652-107.1 7.5117-4.6523 14.57-10 21.102-15.965 7.8164 1.1328 15.23 1.6758 22.508 1.6758 91.156 0 165.31-74.156 165.31-165.31 0-54.234-26.852-104.82-70.898-135.55zm-199.65-103.96c6.4961-47.16 45.625-85.195 93.07-90.449 4.1211-0.44922 8.2305-0.67188 12.305-0.67188 26.238 0 50.977 9.3984 70.719 27.074 22.504 20.156 35.41 49.016 35.41 79.195 0 37.727-20.332 72.961-53.055 91.938-5.9141 3.4375-10.484 8.4883-13.566 14.336h-4.2266v-59.039h11.809c19.531 0 35.426-15.895 35.426-35.426s-15.895-35.426-35.426-35.426-35.426 15.895-35.426 35.426v11.809h-23.617v-11.809c0-19.531-15.895-35.426-35.426-35.426s-35.426 15.895-35.426 35.426 15.895 35.426 35.426 35.426h11.809v59.039h-4.1914c-3.0586-5.8203-7.6055-10.863-13.484-14.266-37.629-21.75-58.082-63.809-52.129-107.16zm105.23 215.89c-15.375 0-28.363-9.9062-33.25-23.617h66.492c-4.8828 13.711-17.871 23.617-33.242 23.617zm35.422-47.23h-70.848v-23.617h70.848zm-70.848-129.89h-11.809c-6.5195 0-11.809-5.3008-11.809-11.809 0-6.5078 5.2891-11.809 11.809-11.809 6.5195 0 11.809 5.3008 11.809 11.809zm47.23 82.656h-23.617v-59.039h23.617zm23.617-82.656v-11.809c0-6.5078 5.2891-11.809 11.809-11.809s11.809 5.3008 11.809 11.809c0 6.5078-5.2891 11.809-11.809 11.809zm-35.422 342.43c-7.7109 0-15.691-0.73047-24.406-2.2539l-6.0352-1.0508-4.332 4.3203c-6.4219 6.3984-13.566 12.055-21.277 16.816-45.238 28.008-72.633 74.117-73.801 123.87l-23.656-0.003906v-37.879c0-14.949-5.832-28.988-16.426-39.535-11.039-11.004-25.918-17.051-42.34-17.051h-0.27344c-36.016 0-69.289-18.078-89.031-48.367l-6.1992-9.5039-9.7422 5.8086c-23.273 13.887-49.961 19.234-77.262 15.457-50.113-6.9414-90.992-46.523-99.398-96.281-6.4453-38.059 5.1367-75.559 31.738-102.91l4.1797-4.2852-0.99219-5.9023c-0.84766-5.0195-1.2617-9.5312-1.2617-13.793 0-45.578 37.09-82.656 82.656-82.656 7.4727 0 15.055 1.0742 22.555 3.1992l12.102 3.4375 2.6562-12.305c8.1367-37.777 42.109-65.184 80.77-65.184 13.59 0 27.086 3.3906 39.027 9.7891l7.1445 3.8477 6.1523-5.3125c21.277-18.375 51.387-24.312 77.84-16.414-1.1445 19.234 1.9492 38.035 8.6797 55.32h-117.41c-4.8867-13.711-17.879-23.617-33.25-23.617-19.531 0-35.426 15.895-35.426 35.426s15.895 35.426 35.426 35.426c15.375 0 28.363-9.9062 33.25-23.617l37.602 0.003906v47.23h-94.465v23.617h118.08v-70.848h68.355c10.91 16.754 25.719 31.125 43.844 41.602 3.6367 2.0977 5.8789 5.9609 5.8789 10.07v42.789c0 28.504 20.32 52.355 47.23 57.848l0.003907 13.004h-70.848v23.617h70.848v23.617h49.406c4.8867 13.711 17.879 23.617 33.25 23.617 19.531 0 35.426-15.895 35.426-35.426s-15.895-35.426-35.426-35.426c-15.375 0-28.363 9.9062-33.25 23.617l-25.793-0.003906v-36.617c26.91-5.4922 47.23-29.332 47.23-57.848v-42.734c0-4.2031 2.2422-8.0312 6.0352-10.215 3.7891-2.1953 7.3086-4.7344 10.816-7.2734 40.656 25.922 65.809 70.805 65.809 119.27 0 78.133-63.562 141.7-141.7 141.7zm-259.78-307.01c0 6.5078-5.2891 11.809-11.809 11.809s-11.809-5.3008-11.809-11.809c0-6.5078 5.2891-11.809 11.809-11.809 6.5156 0 11.809 5.3008 11.809 11.809zm318.82 212.54c0-6.5078 5.2891-11.809 11.809-11.809s11.809 5.3008 11.809 11.809c0 6.5078-5.2891 11.809-11.809 11.809s-11.809-5.3008-11.809-11.809z" fill="#25c19f"/>
  <path d="m741.7 233.95h23.617v47.23h-23.617z" fill="#25c19f"/>
  <path d="m603.23 301.11 16.703-16.695 33.395 33.402-16.703 16.695z" fill="#25c19f"/>
  <path d="m907.01 422.88h59.039v23.617h-59.039z" fill="#25c19f"/>
  <path d="m853.69 317.8 33.398-33.398 16.699 16.699-33.398 33.398z" fill="#25c19f"/>
  <path d="m623.62 670.85h23.617v23.617h-23.617z" fill="#25c19f"/>
  <path d="m659.04 729.89c-15.375 0-28.363 9.9062-33.25 23.617h-120.25v-129.89h23.617v70.848h70.848v-23.617h-47.23v-47.23h49.406c4.8867 13.711 17.879 23.617 33.25 23.617 19.531 0 35.426-15.895 35.426-35.426s-15.895-35.426-35.426-35.426c-15.375 0-28.363 9.9062-33.25 23.617h-216.89c-4.8867-13.711-17.879-23.617-33.25-23.617-19.531 0-35.426 15.895-35.426 35.426s15.895 35.426 35.426 35.426c15.375 0 28.363-9.9062 33.25-23.617h49.402v47.23l-106.27 0.003906v23.617h129.89v-70.848h23.617v94.465h-59.039v23.617h59.039v35.426h143.87c4.8867 13.711 17.879 23.617 33.25 23.617 19.531 0 35.426-15.895 35.426-35.426 0-19.535-15.891-35.43-35.422-35.43zm-23.617-129.89c6.5195 0 11.809 5.3008 11.809 11.809 0 6.5078-5.2891 11.809-11.809 11.809s-11.809-5.3008-11.809-11.809c0-6.5039 5.2891-11.809 11.809-11.809zm-283.39 23.617c-6.5195 0-11.809-5.3008-11.809-11.809 0-6.5078 5.2891-11.809 11.809-11.809s11.809 5.3008 11.809 11.809c0 6.5078-5.2891 11.809-11.809 11.809zm307.01 153.5c-6.5195 0-11.809-5.3008-11.809-11.809s5.2891-11.809 11.809-11.809 11.809 5.3008 11.809 11.809-5.293 11.809-11.809 11.809z" fill="#25c19f"/>
  <path d="m281.18 670.85h23.617v23.617h-23.617z" fill="#25c19f"/>
  <path d="m411.07 552.77h23.617v23.617h-23.617z" fill="#25c19f"/>
  <path d="m375.65 718.08h23.617v23.617h-23.617z" fill="#25c19f"/>
 </g>
</svg>
